<svg id="Layer_3" enable-background="new 0 0 64 64" height="512" viewBox="0 0 64 64" width="512" xmlns="http://www.w3.org/2000/svg"><g><g><path d="m32 38-4 4h8z" fill="#3d98f7"/></g><g><path d="m13 45-3 4h6z" fill="#78b75b"/></g><g><path d="m51 45-3 4h6z" fill="#e47c6e"/></g><g><path d="m23.953 31.026c-.255 2.804-1.551 5.427-3.653 7.337l-7.3 6.637-7.3-6.637c-2.357-2.142-3.7-5.179-3.7-8.363 0-6.075 4.925-11 11-11 1.5 0 2.93.3 4.233.844" fill="#669e4f"/></g><g><path d="m21.528 26.99-4.295-7.146c-1.303-.544-2.733-.844-4.233-.844-6.075 0-11 4.925-11 11 0 2.209.66 4.34 1.843 6.158 1.453.535 3.017.842 4.657.842 6.247 0 11.487-4.249 13.028-10.01z" fill="#78b75b"/></g><g><path d="m46.718 19.864c1.316-.556 2.763-.864 4.282-.864 6.075 0 11 4.925 11 11 0 3.184-1.343 6.221-3.7 8.363l-7.3 6.637-7.3-6.637c-2.062-1.874-3.348-4.434-3.637-7.178" fill="#c66b60"/></g><g><path d="m46.718 19.864-6.656 11.321c.289 2.744 1.576 5.303 3.637 7.178l.636.578c.384.036.772.059 1.165.059 6.904 0 12.5-5.596 12.5-12.5 0-2.199-.572-4.263-1.57-6.059-1.603-.913-3.453-1.441-5.43-1.441-1.519 0-2.966.308-4.282.864z" fill="#e47c6e"/></g><g><path d="m47 17c0 5.081-2.206 9.912-6.046 13.239l-8.954 7.761-8.954-7.761c-3.84-3.327-6.046-8.158-6.046-13.239 0-8.284 6.716-15 15-15s15 6.716 15 15z" fill="#2b74ca"/></g><g><path d="m43 13c0-2.882-.723-5.593-1.988-7.971-2.511-1.893-5.625-3.029-9.012-3.029-8.284 0-15 6.716-15 15 0 4.776 1.969 9.314 5.392 12.608 1.163.251 2.369.392 3.608.392 9.389 0 17-7.611 17-17z" fill="#3d98f7"/></g><g><path d="m32 39c-.233 0-.467-.082-.655-.244l-8.955-7.761c-4.061-3.52-6.39-8.621-6.39-13.995 0-8.822 7.178-16 16-16s16 7.178 16 16c0 5.374-2.329 10.475-6.391 13.995l-8.955 7.761c-.187.162-.421.244-.654.244zm0-36c-7.72 0-14 6.28-14 14 0 4.793 2.078 9.344 5.7 12.483l8.3 7.193 8.3-7.193c3.622-3.139 5.7-7.69 5.7-12.483 0-7.72-6.28-14-14-14z"/></g><g><path d="m36 43h-8c-.404 0-.769-.244-.924-.617-.155-.374-.069-.804.217-1.09l4-4c.391-.391 1.023-.391 1.414 0l4 4c.286.286.372.716.217 1.09-.155.373-.52.617-.924.617zm-5.586-2h3.172l-1.586-1.586z"/></g><g><path d="m29 63h-2v-2.751c0-2.935.694-5.873 2.006-8.497l.199-.398c1.174-2.348 1.795-4.977 1.795-7.603v-1.751h2v1.751c0 2.935-.694 5.873-2.006 8.497l-.199.398c-1.174 2.348-1.795 4.977-1.795 7.603z"/></g><g><path d="m44 17h-2c0-5.514-4.486-10-10-10v-2c6.617 0 12 5.383 12 12z"/></g><g><path d="m51 46c-.241 0-.482-.087-.673-.26l-7.3-6.637c-2.236-2.033-3.642-4.808-3.959-7.812l1.989-.21c.265 2.517 1.442 4.84 3.315 6.542l6.628 6.025 6.627-6.025c2.144-1.948 3.373-4.727 3.373-7.623 0-5.514-4.486-10-10-10-1.351 0-2.66.264-3.892.785l-.779-1.842c1.479-.626 3.051-.943 4.671-.943 6.617 0 12 5.383 12 12 0 3.459-1.468 6.777-4.027 9.103l-7.3 6.637c-.191.173-.432.26-.673.26z"/></g><g><path d="m13 46c-.241 0-.482-.087-.673-.26l-7.3-6.637c-2.559-2.326-4.027-5.644-4.027-9.103 0-6.617 5.383-12 12-12 1.599 0 3.153.31 4.618.921l-.77 1.846c-1.22-.509-2.515-.767-3.848-.767-5.514 0-10 4.486-10 10 0 2.896 1.229 5.675 3.373 7.624l6.627 6.024 6.627-6.025c1.913-1.739 3.095-4.114 3.33-6.688l1.992.182c-.281 3.074-1.693 5.91-3.977 7.986l-7.3 6.637c-.19.173-.431.26-.672.26z"/></g><g><path d="m7 30h-2c0-4.411 3.589-8 8-8v2c-3.309 0-6 2.691-6 6z"/></g><g><path d="m59 30h-2c0-3.309-2.691-6-6-6v-2c4.411 0 8 3.589 8 8z"/></g><g><path d="m16 50h-6c-.379 0-.725-.214-.895-.553s-.132-.744.095-1.047l3-4c.377-.504 1.223-.504 1.6 0l3 4c.228.303.264.708.095 1.047s-.516.553-.895.553zm-4-2h2l-1-1.333z"/></g><g><path d="m12 49h2v14h-2z"/></g><g><path d="m54 50h-6c-.379 0-.725-.214-.895-.553s-.132-.744.095-1.047l3-4c.377-.504 1.223-.504 1.6 0l3 4c.228.303.264.708.095 1.047s-.516.553-.895.553zm-4-2h2l-1-1.333z"/></g><g><path d="m50 49h2v14h-2z"/></g></g></svg>