<?xml version="1.0" encoding="UTF-8"?>
<svg width="961px" height="961px" viewBox="0 0 961 961" version="1.1" xmlns="http://www.w3.org/2000/svg" xmlns:xlink="http://www.w3.org/1999/xlink">
    <!-- Generator: Sketch 43.1 (39012) - http://www.bohemiancoding.com/sketch -->
    <title>board-games</title>
    <desc>Created with Sketch.</desc>
    <defs></defs>
    <g id="Page-1" stroke="none" stroke-width="1" fill="none" fill-rule="evenodd">
        <g id="board-games" transform="translate(20.000000, 20.000000)">
            <circle id="Oval" stroke="#FFFFFF" stroke-width="40" cx="460.5" cy="460.5" r="460.5"></circle>
            <path d="M714.07,402.42 C712.21,400.56 709.63,399.49 707,399.49 C704.36,399.49 701.79,400.56 699.93,402.42 C698.07,404.28 697,406.86 697,409.49 C697,412.12 698.07,414.7 699.93,416.56 C701.79,418.43 704.37,419.49 707,419.49 C709.63,419.49 712.21,418.43 714.07,416.56 C715.93,414.7 717,412.12 717,409.49 C717,406.86 715.93,404.28 714.07,402.42 Z" id="Shape" fill="#FFFFFF" fill-rule="nonzero"></path>
            <path d="M707,377.333 C712.523,377.333 717,372.856 717,367.333 L717,235 C717,218.458 703.542,205 687,205 L235,205 C218.458,205 205,218.458 205,235 L205,687 C205,703.542 218.458,717 235,717 L687,717 C703.542,717 717,703.542 717,687 L717,454.667 C717,449.144 712.523,444.667 707,444.667 C701.477,444.667 697,449.144 697,454.667 L697,687 C697,692.514 692.514,697 687,697 L235,697 C229.486,697 225,692.514 225,687 L225,235 C225,229.486 229.486,225 235,225 L687,225 C692.514,225 697,229.486 697,235 L697,367.333 C697,372.856 701.477,377.333 707,377.333 Z" id="Shape" fill="#FFFFFF" fill-rule="nonzero"></path>
            <path d="M667,245 L255,245 C249.477,245 245,249.477 245,255 L245,667 C245,672.522 249.477,677 255,677 L667,677 C672.523,677 677,672.522 677,667 L677,255 C677,249.477 672.523,245 667,245 Z M348.016,657 L265,657 L265,573.953 L348.016,573.953 L348.016,657 L348.016,657 Z M348.016,553.953 L265,553.953 L265,470.969 L348.016,470.969 L348.016,553.953 L348.016,553.953 Z M348.016,450.969 L265,450.969 L265,367.985 L348.016,367.985 L348.016,450.969 L348.016,450.969 Z M348.016,347.984 L265,347.984 L265,265 L348.016,265 L348.016,347.984 L348.016,347.984 Z M451,657 L368.016,657 L368.016,573.953 L451,573.953 L451,657 Z M451,553.953 L368.016,553.953 L368.016,470.969 L451,470.969 L451,553.953 Z M451,367.984 L451,450.968 L368.016,450.968 L368.016,367.984 L451,367.984 L451,367.984 Z M451,347.984 L368.016,347.984 L368.016,265 L451,265 L451,347.984 Z M553.984,657 L471,657 L471,573.953 L553.984,573.953 L553.984,657 Z M553.984,553.953 L471,553.953 L471,470.969 L553.984,470.969 L553.984,553.953 Z M553.984,450.969 L471,450.969 L471,367.985 L553.984,367.985 L553.984,450.969 Z M553.984,347.984 L471,347.984 L471,265 L553.984,265 L553.984,347.984 Z M657,657 L573.984,657 L573.984,573.953 L657,573.953 L657,657 Z M657,553.953 L573.984,553.953 L573.984,470.969 L657,470.969 L657,553.953 Z M657,450.969 L573.984,450.969 L573.984,367.985 L657,367.985 L657,450.969 Z M657,347.984 L573.984,347.984 L573.984,265 L657,265 L657,347.984 Z" id="Shape" fill="#FFFFFF" fill-rule="nonzero"></path>
        </g>
    </g>
</svg>