<?xml version="1.0" encoding="UTF-8"?>
<svg width="245px" height="286px" viewBox="0 0 245 286" version="1.1" xmlns="http://www.w3.org/2000/svg" xmlns:xlink="http://www.w3.org/1999/xlink">
    <!-- Generator: Sketch 43.1 (39012) - http://www.bohemiancoding.com/sketch -->
    <title>new</title>
    <desc>Created with Sketch.</desc>
    <defs></defs>
    <g id="Page-1" stroke="none" stroke-width="1" fill="none" fill-rule="evenodd">
        <g id="new">
            <rect id="Rectangle" fill="#313131" x="13.9835052" y="146.816736" width="219.740796" height="126.84167" rx="8"></rect>
            <path d="M78.073,183.137 L78.073,214.881 L51.446,178.968 C49.647,176.541 46.495,175.544 43.628,176.49 C40.76,177.437 38.823,180.117 38.823,183.137 L38.823,232.202 C38.823,236.068 41.957,239.202 45.823,239.202 C49.689,239.202 52.823,236.068 52.823,232.202 L52.823,204.331 L79.45,240.244 C80.796,242.059 82.899,243.076 85.074,243.076 C85.806,243.076 86.546,242.961 87.268,242.722 C90.136,241.775 92.073,239.095 92.073,236.075 L92.073,183.137 C92.073,179.271 88.939,176.137 85.073,176.137 C81.207,176.137 78.073,179.271 78.073,183.137 Z" id="Shape" fill="#27DA56" fill-rule="nonzero"></path>
            <path d="M198.535,176.137 C194.669,176.137 191.535,179.271 191.535,183.137 L191.535,204.894 L187.179,196.956 C185.964,194.742 183.65,193.353 181.123,193.324 C178.631,193.259 176.251,194.628 174.985,196.814 L169.573,206.155 L169.573,183.136 C169.573,179.27 166.439,176.136 162.573,176.136 C158.707,176.136 155.573,179.27 155.573,183.136 L155.573,232.201 C155.573,235.368 157.698,238.139 160.756,238.961 C163.816,239.782 167.043,238.45 168.63,235.71 L180.876,214.572 L192.397,235.569 C193.647,237.848 196.023,239.202 198.533,239.202 C199.11,239.202 199.694,239.131 200.272,238.982 C203.368,238.188 205.534,235.398 205.534,232.201 L205.534,183.136 C205.535,179.271 202.401,176.137 198.535,176.137 L198.535,176.137 Z" id="Shape" fill="#FF00B6" fill-rule="nonzero"></path>
            <path d="M139.573,190.137 C143.439,190.137 146.573,187.003 146.573,183.137 C146.573,179.271 143.439,176.137 139.573,176.137 L110.404,176.137 C106.538,176.137 103.404,179.271 103.404,183.137 L103.404,232.202 C103.404,236.068 106.538,239.202 110.404,239.202 L139.573,239.202 C143.439,239.202 146.573,236.068 146.573,232.202 C146.573,228.336 143.439,225.202 139.573,225.202 L117.404,225.202 L117.404,214.67 L139.573,214.67 C143.439,214.67 146.573,211.536 146.573,207.67 C146.573,203.804 143.439,200.67 139.573,200.67 L117.404,200.67 L117.404,190.137 L139.573,190.137 Z" id="Shape" fill="#FFFC00" fill-rule="nonzero"></path>
            <path d="M222.30577,133.601232 L128.172808,2.90537336 C126.858359,1.08164983 124.747848,0 122.499501,0 C120.251153,0 118.139643,1.08164983 116.826193,2.90537336 L22.6922324,133.601232 C9.668595,136.88713 0,148.696389 0,162.724878 L0,255.964492 C0,272.526818 13.4751049,286 30.0385668,286 L214.961433,286 C231.524895,286 245,272.525819 245,255.964492 L245,162.724878 C244.999001,148.696389 235.329407,136.88713 222.30577,133.601232 Z M122.499501,18.9543402 L204.416872,132.688372 L40.5811308,132.688372 L122.499501,18.9543402 L122.499501,18.9543402 Z M231.015496,255.964492 C231.015496,264.816442 223.813991,272.017454 214.960434,272.017454 L30.0375679,272.017454 C21.1850103,272.017454 13.9825063,264.816442 13.9825063,255.964492 L13.9825063,162.724878 C13.9825063,153.872928 21.1840115,146.671917 30.0375679,146.671917 L214.960434,146.671917 C223.812992,146.671917 231.015496,153.872928 231.015496,162.724878 L231.015496,255.964492 Z" id="Shape" fill="#000000" fill-rule="nonzero"></path>
            <path d="M26.499,152.297 C24.659,152.297 22.849,153.037 21.549,154.347 C20.239,155.647 19.499,157.447 19.499,159.297 C19.499,161.137 20.239,162.937 21.549,164.247 C22.849,165.547 24.659,166.297 26.499,166.297 C28.339,166.297 30.139,165.547 31.449,164.247 C32.749,162.937 33.499,161.137 33.499,159.297 C33.499,157.447 32.749,155.647 31.449,154.347 C30.139,153.037 28.338,152.297 26.499,152.297 Z" id="Shape" fill="#FF8F00" fill-rule="nonzero"></path>
            <path d="M217.858,152.297 C216.018,152.297 214.208,153.037 212.908,154.347 C211.608,155.647 210.858,157.447 210.858,159.297 C210.858,161.137 211.608,162.937 212.908,164.247 C214.218,165.547 216.018,166.297 217.858,166.297 C219.698,166.297 221.508,165.547 222.808,164.247 C224.118,162.937 224.858,161.137 224.858,159.297 C224.858,157.447 224.118,155.647 222.808,154.347 C221.509,153.037 219.699,152.297 217.858,152.297 Z" id="Shape" fill="#C20202" fill-rule="nonzero"></path>
        </g>
    </g>
</svg>